<svg id="ios" xmlns="http://www.w3.org/2000/svg" xmlns:xlink="http://www.w3.org/1999/xlink" width="111.944" height="40.14" viewBox="0 0 111.944 40.14">
  <defs>
    <clipPath id="clip-path">
      <rect id="Rectangle_600" data-name="Rectangle 600" width="111.944" height="40.14" rx="8" fill="#252f38"/>
    </clipPath>
  </defs>
  <g id="Group_10649" data-name="Group 10649">
    <g id="Group_468" data-name="Group 468" clip-path="url(#clip-path)">
      <path id="Path_1901" data-name="Path 1901" d="M157.9,47.3H8.813C3.946,47.3,0,43.713,0,39.294V8C0,3.582,3.946,0,8.813,0H157.9c4.867,0,8.813,3.582,8.813,8V39.294c0,4.419-3.946,8-8.813,8" transform="translate(-26.927 -3.578)" fill="#252f38"/>
    </g>
  </g>
  <g id="Group_10657" data-name="Group 10657" transform="translate(12.588 8.488)">
    <g id="Group_10655" data-name="Group 10655" transform="translate(0)">
      <path id="Path_1879" data-name="Path 1879" d="M47.475,47.54a4.6,4.6,0,0,1,2.19-3.859,4.709,4.709,0,0,0-3.71-2.005c-1.561-.164-3.074.934-3.869.934-.811,0-2.036-.918-3.354-.891a4.94,4.94,0,0,0-4.157,2.535c-1.8,3.112-.457,7.686,1.265,10.2.861,1.232,1.868,2.608,3.186,2.559,1.289-.054,1.771-.822,3.327-.822s1.994.822,3.338.791c1.384-.022,2.255-1.237,3.086-2.481a10.192,10.192,0,0,0,1.411-2.874,4.444,4.444,0,0,1-2.713-4.089" transform="translate(-33.722 -36.776)" fill="#fff"/>
      <path id="Path_1880" data-name="Path 1880" d="M69.915,25.116a4.528,4.528,0,0,0,1.036-3.244,4.607,4.607,0,0,0-2.981,1.542,4.308,4.308,0,0,0-1.063,3.124,3.81,3.81,0,0,0,3.008-1.422" transform="translate(-58.7 -21.872)" fill="#fff"/>
    </g>
    <g id="Group_10656" data-name="Group 10656" transform="translate(23.498 0.268)">
      <g id="Group_10655-2" data-name="Group 10655" transform="translate(0 9.079)">
        <path id="Path_1881" data-name="Path 1881" d="M137.864,70.947h-1.8l-.987-3.1h-3.43l-.94,3.1h-1.754l3.4-10.558h2.1Zm-3.086-4.4-.893-2.757q-.141-.423-.533-1.989h-.031q-.156.674-.5,1.989l-.877,2.757Z" transform="translate(-128.951 -60.232)" fill="#fff"/>
        <path id="Path_1882" data-name="Path 1882" d="M178.115,75.558a4.328,4.328,0,0,1-1.049,3.07,3.069,3.069,0,0,1-2.334,1,2.333,2.333,0,0,1-2.162-1.081h-.031v4.01h-1.692V74.352q0-1.221-.063-2.506h1.488l.094,1.206h.032a3.01,3.01,0,0,1,4.817-.3,4.2,4.2,0,0,1,.9,2.8m-1.723.062a3.137,3.137,0,0,0-.5-1.832,1.732,1.732,0,0,0-1.472-.752,1.757,1.757,0,0,0-1.135.415,1.925,1.925,0,0,0-.666,1.089,2.215,2.215,0,0,0-.078.516v1.269a2.034,2.034,0,0,0,.509,1.4,1.689,1.689,0,0,0,1.324.572,1.733,1.733,0,0,0,1.488-.736,3.246,3.246,0,0,0,.533-1.943" transform="translate(-160.461 -68.744)" fill="#fff"/>
        <path id="Path_1883" data-name="Path 1883" d="M213.6,75.558a4.325,4.325,0,0,1-1.051,3.07,3.066,3.066,0,0,1-2.333,1,2.332,2.332,0,0,1-2.161-1.081h-.031v4.01h-1.692V74.352q0-1.221-.063-2.506h1.488l.094,1.206h.031a3.011,3.011,0,0,1,4.817-.3,4.2,4.2,0,0,1,.9,2.8m-1.723.062a3.133,3.133,0,0,0-.5-1.832,1.73,1.73,0,0,0-1.472-.752,1.757,1.757,0,0,0-1.136.415,1.928,1.928,0,0,0-.665,1.089,2.244,2.244,0,0,0-.078.516v1.269a2.039,2.039,0,0,0,.508,1.4,1.692,1.692,0,0,0,1.325.572,1.732,1.732,0,0,0,1.487-.736,3.246,3.246,0,0,0,.533-1.943" transform="translate(-187.191 -68.744)" fill="#fff"/>
        <path id="Path_1884" data-name="Path 1884" d="M255.66,67.507a2.812,2.812,0,0,1-.937,2.192,4.156,4.156,0,0,1-2.876.924,5.038,5.038,0,0,1-2.737-.658l.392-1.41a4.633,4.633,0,0,0,2.445.674,2.311,2.311,0,0,0,1.489-.432,1.409,1.409,0,0,0,.532-1.154,1.471,1.471,0,0,0-.439-1.083,4.085,4.085,0,0,0-1.457-.817q-2.773-1.034-2.772-3.028a2.682,2.682,0,0,1,.971-2.134,3.834,3.834,0,0,1,2.585-.832,5.124,5.124,0,0,1,2.4.5l-.423,1.379a4.157,4.157,0,0,0-2.021-.486,2.041,2.041,0,0,0-1.393.439,1.252,1.252,0,0,0-.423.956,1.289,1.289,0,0,0,.485,1.033,5.482,5.482,0,0,0,1.536.815,5.211,5.211,0,0,1,2.005,1.284,2.693,2.693,0,0,1,.642,1.833" transform="translate(-219.459 -59.753)" fill="#fff"/>
        <path id="Path_1885" data-name="Path 1885" d="M284.166,67.806H282.3v3.7q0,1.41.987,1.41a3.037,3.037,0,0,0,.751-.078l.047,1.284a3.824,3.824,0,0,1-1.316.188,2.029,2.029,0,0,1-1.566-.61,3,3,0,0,1-.564-2.052V67.806H279.53V66.537h1.111V65.142l1.661-.5v1.9h1.864Z" transform="translate(-242.373 -63.435)" fill="#fff"/>
        <path id="Path_1886" data-name="Path 1886" d="M309.65,75.589a4.178,4.178,0,0,1-1,2.882,3.58,3.58,0,0,1-2.789,1.159,3.4,3.4,0,0,1-2.67-1.112,4.049,4.049,0,0,1-.995-2.8,4.135,4.135,0,0,1,1.026-2.9,3.551,3.551,0,0,1,2.764-1.128,3.477,3.477,0,0,1,2.695,1.113,4.012,4.012,0,0,1,.971,2.788m-1.756.055a3.428,3.428,0,0,0-.454-1.807,1.672,1.672,0,0,0-1.519-.911,1.7,1.7,0,0,0-1.551.911,3.491,3.491,0,0,0-.454,1.839,3.425,3.425,0,0,0,.454,1.806,1.728,1.728,0,0,0,3.054-.016,3.431,3.431,0,0,0,.47-1.822" transform="translate(-259.444 -68.744)" fill="#fff"/>
        <path id="Path_1887" data-name="Path 1887" d="M342.256,73.333a2.921,2.921,0,0,0-.533-.046,1.6,1.6,0,0,0-1.379.674,2.531,2.531,0,0,0-.423,1.5v3.995H338.23l.016-5.216q0-1.317-.063-2.4h1.474l.062,1.457h.046a2.6,2.6,0,0,1,.846-1.205,2.046,2.046,0,0,1,1.222-.408,2.671,2.671,0,0,1,.423.031Z" transform="translate(-286.553 -68.744)" fill="#fff"/>
        <path id="Path_1888" data-name="Path 1888" d="M364.692,75.244a3.972,3.972,0,0,1-.062.767h-5.075a2.21,2.21,0,0,0,.736,1.724,2.513,2.513,0,0,0,1.66.532,5.618,5.618,0,0,0,2.053-.36l.265,1.175a6.355,6.355,0,0,1-2.552.47,3.694,3.694,0,0,1-2.781-1.042,3.85,3.85,0,0,1-1.01-2.8,4.36,4.36,0,0,1,.941-2.867,3.242,3.242,0,0,1,2.662-1.221,2.836,2.836,0,0,1,2.492,1.221,4.115,4.115,0,0,1,.673,2.4m-1.613-.439a2.3,2.3,0,0,0-.328-1.3,1.478,1.478,0,0,0-1.348-.7,1.6,1.6,0,0,0-1.347.69,2.518,2.518,0,0,0-.5,1.315Z" transform="translate(-301.423 -68.696)" fill="#fff"/>
      </g>
      <g id="Group_10656-2" data-name="Group 10656" transform="translate(1.004 0)">
        <path id="Path_1889" data-name="Path 1889" d="M137.283,26.406a2.6,2.6,0,0,1-.839,2.109,3.337,3.337,0,0,1-2.208.654,10.306,10.306,0,0,1-1.216-.062V24a8.958,8.958,0,0,1,1.432-.108,3.087,3.087,0,0,1,2.054.593,2.392,2.392,0,0,1,.777,1.916m-.877.023a1.69,1.69,0,0,0-1.886-1.878,3.533,3.533,0,0,0-.669.054v3.879a4.443,4.443,0,0,0,.562.023,1.968,1.968,0,0,0,1.474-.531,2.125,2.125,0,0,0,.52-1.547" transform="translate(-133.02 -23.666)" fill="#fff"/>
        <path id="Path_1890" data-name="Path 1890" d="M157.952,31.521a2.049,2.049,0,0,1-.493,1.416,1.757,1.757,0,0,1-1.37.57,1.674,1.674,0,0,1-1.313-.546,1.992,1.992,0,0,1-.488-1.378,2.033,2.033,0,0,1,.5-1.424,1.746,1.746,0,0,1,1.358-.554,1.711,1.711,0,0,1,1.324.546,1.974,1.974,0,0,1,.477,1.37m-.862.027a1.688,1.688,0,0,0-.223-.888.821.821,0,0,0-.746-.448.834.834,0,0,0-.762.448,1.721,1.721,0,0,0-.223.9,1.692,1.692,0,0,0,.223.888.849.849,0,0,0,1.5-.008,1.682,1.682,0,0,0,.231-.9" transform="translate(-149.041 -27.965)" fill="#fff"/>
        <path id="Path_1891" data-name="Path 1891" d="M177.855,29.917l-1.17,3.74h-.761l-.485-1.624a12.011,12.011,0,0,1-.3-1.208h-.015a8.807,8.807,0,0,1-.3,1.208l-.515,1.624h-.77l-1.1-3.74h.855l.423,1.778q.153.631.254,1.2h.015q.093-.469.308-1.193l.531-1.785h.677l.508,1.747q.185.638.3,1.231h.023a11.724,11.724,0,0,1,.254-1.231l.454-1.747Z" transform="translate(-162.71 -28.201)" fill="#fff"/>
        <path id="Path_1892" data-name="Path 1892" d="M201.854,33.423h-.831V31.281q0-.99-.754-.99a.75.75,0,0,0-.6.272.963.963,0,0,0-.231.641v2.219h-.831v-2.67q0-.493-.03-1.07h.731l.039.584h.023a1.2,1.2,0,0,1,.431-.451,1.4,1.4,0,0,1,.754-.21,1.193,1.193,0,0,1,.87.339,1.644,1.644,0,0,1,.431,1.239Z" transform="translate(-182.4 -27.966)" fill="#fff"/>
        <rect id="Rectangle_598" data-name="Rectangle 598" width="0.831" height="5.456" transform="translate(20.917 0)" fill="#fff"/>
        <path id="Path_1893" data-name="Path 1893" d="M229.809,31.521a2.05,2.05,0,0,1-.493,1.416,1.759,1.759,0,0,1-1.37.57,1.671,1.671,0,0,1-1.312-.546,1.991,1.991,0,0,1-.488-1.378,2.033,2.033,0,0,1,.5-1.424,1.745,1.745,0,0,1,1.357-.554,1.712,1.712,0,0,1,1.325.546,1.975,1.975,0,0,1,.477,1.37m-.863.027a1.687,1.687,0,0,0-.223-.888.82.82,0,0,0-.745-.448.832.832,0,0,0-.762.448,1.718,1.718,0,0,0-.223.9,1.69,1.69,0,0,0,.223.888.839.839,0,0,0,.755.447.83.83,0,0,0,.745-.455,1.677,1.677,0,0,0,.231-.9" transform="translate(-203.167 -27.965)" fill="#fff"/>
        <path id="Path_1894" data-name="Path 1894" d="M247.925,33.423h-.747l-.062-.431h-.023a1.281,1.281,0,0,1-1.092.516,1.126,1.126,0,0,1-.854-.339,1.062,1.062,0,0,1-.293-.761,1.163,1.163,0,0,1,.573-1.047,2.985,2.985,0,0,1,1.613-.354v-.069q0-.738-.776-.739a1.734,1.734,0,0,0-.975.277l-.169-.546a2.392,2.392,0,0,1,1.283-.323q1.467,0,1.467,1.547V32.53a5.821,5.821,0,0,0,.054.893m-.863-1.285v-.577q-1.376-.023-1.376.754a.564.564,0,0,0,.16.439.582.582,0,0,0,.406.146.835.835,0,0,0,.508-.173.707.707,0,0,0,.288-.442.686.686,0,0,0,.014-.147" transform="translate(-217.258 -27.966)" fill="#fff"/>
        <path id="Path_1895" data-name="Path 1895" d="M265.548,28.418h-.738l-.039-.6h-.023a1.243,1.243,0,0,1-1.2.685,1.407,1.407,0,0,1-1.124-.531,2.068,2.068,0,0,1-.446-1.377,2.166,2.166,0,0,1,.485-1.47,1.49,1.49,0,0,1,1.154-.523,1.121,1.121,0,0,1,1.054.508h.016V22.961h.832V27.41q0,.546.03,1.008m-.862-1.578v-.624a1.188,1.188,0,0,0-.023-.261.946.946,0,0,0-.3-.5.816.816,0,0,0-.556-.2.854.854,0,0,0-.731.369,1.586,1.586,0,0,0-.266.947,1.48,1.48,0,0,0,.256.9.856.856,0,0,0,.727.369.8.8,0,0,0,.657-.307,1.029,1.029,0,0,0,.239-.685" transform="translate(-230.157 -22.961)" fill="#fff"/>
        <path id="Path_1896" data-name="Path 1896" d="M294.081,31.521a2.05,2.05,0,0,1-.492,1.416,1.757,1.757,0,0,1-1.37.57,1.676,1.676,0,0,1-1.312-.546,1.991,1.991,0,0,1-.488-1.378,2.035,2.035,0,0,1,.5-1.424,1.747,1.747,0,0,1,1.359-.554,1.708,1.708,0,0,1,1.323.546,1.974,1.974,0,0,1,.477,1.37m-.861.027a1.688,1.688,0,0,0-.223-.888.822.822,0,0,0-.747-.448.836.836,0,0,0-.763.448,1.721,1.721,0,0,0-.223.9,1.692,1.692,0,0,0,.223.888.85.85,0,0,0,1.5-.008,1.689,1.689,0,0,0,.231-.9" transform="translate(-251.579 -27.965)" fill="#fff"/>
        <path id="Path_1897" data-name="Path 1897" d="M313.376,33.423h-.831V31.281q0-.99-.755-.99a.747.747,0,0,0-.6.272.963.963,0,0,0-.231.641v2.219h-.832v-2.67q0-.493-.03-1.07h.73l.039.584h.023a1.212,1.212,0,0,1,.431-.451,1.405,1.405,0,0,1,.755-.21,1.193,1.193,0,0,1,.869.339,1.641,1.641,0,0,1,.431,1.239Z" transform="translate(-266.403 -27.966)" fill="#fff"/>
        <path id="Path_1898" data-name="Path 1898" d="M339.1,27.7h-.916v1.816c0,.462.163.693.485.693a1.463,1.463,0,0,0,.37-.039l.022.631a1.877,1.877,0,0,1-.646.093.994.994,0,0,1-.769-.3,1.465,1.465,0,0,1-.277-1.008V27.7h-.547v-.623h.547V26.39l.815-.246v.931h.916Z" transform="translate(-286.535 -25.358)" fill="#fff"/>
        <path id="Path_1899" data-name="Path 1899" d="M353.982,28.418h-.832V26.292q0-1.006-.753-1.006a.793.793,0,0,0-.794.584,1.042,1.042,0,0,0-.039.3v2.249h-.831V22.962h.831v2.254h.015A1.257,1.257,0,0,1,352.7,24.6a1.16,1.16,0,0,1,.855.339,1.7,1.7,0,0,1,.423,1.254Z" transform="translate(-297.011 -22.962)" fill="#fff"/>
        <path id="Path_1900" data-name="Path 1900" d="M372.151,31.352a2,2,0,0,1-.031.377h-2.493a1.089,1.089,0,0,0,.361.846,1.238,1.238,0,0,0,.817.262,2.76,2.76,0,0,0,1.009-.177l.13.577a3.134,3.134,0,0,1-1.255.231,1.811,1.811,0,0,1-1.365-.512,1.886,1.886,0,0,1-.5-1.374,2.141,2.141,0,0,1,.462-1.408,1.589,1.589,0,0,1,1.308-.6,1.39,1.39,0,0,1,1.223.6,2.008,2.008,0,0,1,.332,1.178m-.793-.215a1.119,1.119,0,0,0-.161-.639.726.726,0,0,0-.662-.346.79.79,0,0,0-.662.339,1.251,1.251,0,0,0-.246.647Z" transform="translate(-310.64 -27.942)" fill="#fff"/>
      </g>
    </g>
  </g>
</svg>
